<svg width="23" height="26" viewBox="0 0 23 26" fill="none" xmlns="http://www.w3.org/2000/svg">
<path fill-rule="evenodd" clip-rule="evenodd" d="M16.2035 0.055542C16.6865 0.055542 17.0785 0.447542 17.0785 0.930542L17.079 1.91965C18.7825 2.03644 20.1973 2.61993 21.1986 3.62333C22.2918 4.72116 22.8669 6.29966 22.8611 8.19316V18.8367C22.8611 22.724 20.3924 25.139 16.4199 25.139H6.55225C2.57975 25.139 0.111084 22.6902 0.111084 18.748V8.19083C0.111084 4.52422 2.31265 2.17064 5.90322 1.92005L5.90393 0.930542C5.90393 0.447542 6.29593 0.055542 6.77893 0.055542C7.26193 0.055542 7.65393 0.447542 7.65393 0.930542L7.65358 1.89771H15.3279L15.3285 0.930542C15.3285 0.447542 15.7205 0.055542 16.2035 0.055542ZM21.1111 10.4435H1.86108V18.748C1.86108 21.7417 3.52708 23.389 6.55225 23.389H16.4199C19.4451 23.389 21.1111 21.772 21.1111 18.8367L21.1111 10.4435ZM16.6792 17.7846C17.1622 17.7846 17.5542 18.1766 17.5542 18.6596C17.5542 19.1426 17.1622 19.5346 16.6792 19.5346C16.1962 19.5346 15.7995 19.1426 15.7995 18.6596C15.7995 18.1766 16.1857 17.7846 16.6687 17.7846H16.6792ZM11.5021 17.7846C11.9851 17.7846 12.3771 18.1766 12.3771 18.6596C12.3771 19.1426 11.9851 19.5346 11.5021 19.5346C11.0191 19.5346 10.6224 19.1426 10.6224 18.6596C10.6224 18.1766 11.0086 17.7846 11.4916 17.7846H11.5021ZM6.31413 17.7846C6.79713 17.7846 7.18913 18.1766 7.18913 18.6596C7.18913 19.1426 6.79713 19.5346 6.31413 19.5346C5.83113 19.5346 5.4333 19.1426 5.4333 18.6596C5.4333 18.1766 5.82063 17.7846 6.30363 17.7846H6.31413ZM16.6792 13.2501C17.1622 13.2501 17.5542 13.6421 17.5542 14.1251C17.5542 14.6081 17.1622 15.0001 16.6792 15.0001C16.1962 15.0001 15.7995 14.6081 15.7995 14.1251C15.7995 13.6421 16.1857 13.2501 16.6687 13.2501H16.6792ZM11.5021 13.2501C11.9851 13.2501 12.3771 13.6421 12.3771 14.1251C12.3771 14.6081 11.9851 15.0001 11.5021 15.0001C11.0191 15.0001 10.6224 14.6081 10.6224 14.1251C10.6224 13.6421 11.0086 13.2501 11.4916 13.2501H11.5021ZM6.31413 13.2501C6.79713 13.2501 7.18913 13.6421 7.18913 14.1251C7.18913 14.6081 6.79713 15.0001 6.31413 15.0001C5.83113 15.0001 5.4333 14.6081 5.4333 14.1251C5.4333 13.6421 5.82063 13.2501 6.30363 13.2501H6.31413ZM15.3279 3.64771H7.65358L7.65393 4.77004C7.65393 5.25304 7.26193 5.64504 6.77893 5.64504C6.29593 5.64504 5.90393 5.25304 5.90393 4.77004L5.90331 3.67419C3.28971 3.89375 1.86108 5.47804 1.86108 8.19083V8.69354H21.1111L21.1111 8.19083C21.1158 6.74999 20.7284 5.62999 19.9596 4.85999C19.2847 4.1831 18.2981 3.77884 17.0795 3.67475L17.0785 4.77004C17.0785 5.25304 16.6865 5.64504 16.2035 5.64504C15.7205 5.64504 15.3285 5.25304 15.3285 4.77004L15.3279 3.64771Z" fill="black"/>
</svg>
