<svg width="24" height="24" viewBox="0 0 24 24" fill="none" xmlns="http://www.w3.org/2000/svg">
<path d="M2 21V5H7.15L9 3H15L16.85 5H22V21H2ZM4 19H20V7H15.95L14.125 5H9.875L8.05 7H4V19ZM12 18C13.3167 18 14.45 17.554 15.4 16.662C16.35 15.77 16.8667 14.666 16.95 13.35L17.7 14.05L18.75 13L16.25 10.5L13.75 13L14.8 14.05L15.45 13.4C15.35 14.2833 14.975 15.021 14.325 15.613C13.675 16.205 12.9 16.5007 12 16.5C11.7833 16.5 11.5707 16.4793 11.362 16.438C11.1533 16.3967 10.9493 16.334 10.75 16.25L9.65 17.35C10.0167 17.55 10.396 17.7083 10.788 17.825C11.18 17.9417 11.584 18 12 18ZM7.75 15.5L10.25 13L9.2 11.95L8.55 12.6C8.65 11.7167 9.025 10.9793 9.675 10.388C10.325 9.79667 11.1 9.50067 12 9.5C12.2167 9.5 12.4293 9.521 12.638 9.563C12.8467 9.605 13.0507 9.66733 13.25 9.75L14.35 8.65C13.9833 8.45 13.6043 8.29167 13.213 8.175C12.8217 8.05833 12.4173 8 12 8C10.6833 8 9.55 8.446 8.6 9.338C7.65 10.23 7.13333 11.334 7.05 12.65L6.3 11.95L5.25 13L7.75 15.5Z" fill="white"/>
</svg>
