<svg width="30" height="30" viewBox="0 0 30 30" fill="none" xmlns="http://www.w3.org/2000/svg">
<path d="M3.42744 16.6875L16.6874 3.42562C17.3839 2.72917 18.2107 2.1767 19.1207 1.79978C20.0306 1.42286 21.0059 1.22887 21.9909 1.22887C22.9758 1.22887 23.9511 1.42286 24.8611 1.79978C25.771 2.1767 26.5979 2.72916 27.2943 3.42562C27.9908 4.12208 28.5432 4.94889 28.9202 5.85886C29.2971 6.76883 29.4911 7.74412 29.4911 8.72906C29.4911 9.714 29.2971 10.6893 28.9202 11.5993C28.5432 12.5092 27.9908 13.336 27.2943 14.0325L14.0381 27.2906C13.3419 27.9875 12.5152 28.5403 11.6053 28.9177C10.6955 29.295 9.72016 29.4895 8.73513 29.4899C7.7501 29.4904 6.77463 29.2968 5.86442 28.9202C4.95421 28.5437 4.12708 27.9915 3.43025 27.2953C2.73342 26.5991 2.18055 25.7725 1.80319 24.8626C1.42584 23.9527 1.23139 22.9774 1.23096 21.9924C1.23052 21.0073 1.42411 20.0319 1.80066 19.1217C2.17721 18.2115 2.73123 17.3843 3.42744 16.6875ZM20.5424 18.1331L25.9668 12.7087C26.4961 12.1879 26.917 11.5675 27.2052 10.8832C27.4935 10.1989 27.6434 9.46425 27.6463 8.72172C27.6493 7.97919 27.5052 7.24342 27.2223 6.55686C26.9395 5.8703 26.5235 5.24653 25.9984 4.72154C25.4733 4.19654 24.8494 3.78071 24.1628 3.49803C23.4762 3.21536 22.7404 3.07142 21.9978 3.07453C21.2553 3.07764 20.5207 3.22774 19.8365 3.51616C19.1522 3.80458 18.5319 4.22562 18.0112 4.755L12.5868 10.1794L20.5424 18.1331Z" fill="#0E2087"/>
</svg>
