<svg width="18" height="18" viewBox="0 0 18 18" fill="none" xmlns="http://www.w3.org/2000/svg">
<path d="M6.0679 0.228032C4.70441 0.0756414 3.29536 0.0756414 1.93187 0.228032C1.05469 0.32607 0.345389 1.01682 0.241946 1.90126C0.0788564 3.29568 0.0788565 4.70435 0.241946 6.09877C0.345389 6.9832 1.05469 7.67396 1.93187 7.772C3.29537 7.92439 4.70441 7.92439 6.0679 7.772C6.94508 7.67396 7.65438 6.9832 7.75783 6.09877C7.92092 4.70435 7.92092 3.29568 7.75783 1.90126C7.65438 1.01682 6.94508 0.32607 6.0679 0.228032Z" fill="white"/>
<path d="M6.0679 10.228C4.70441 10.0756 3.29536 10.0756 1.93187 10.228C1.05469 10.3261 0.345389 11.0168 0.241946 11.9013C0.0788564 13.2957 0.0788565 14.7043 0.241946 16.0988C0.345389 16.9832 1.05469 17.674 1.93187 17.772C3.29537 17.9244 4.70441 17.9244 6.0679 17.772C6.94508 17.674 7.65438 16.9832 7.75783 16.0988C7.92092 14.7043 7.92092 13.2957 7.75783 11.9013C7.65438 11.0168 6.94508 10.3261 6.0679 10.228Z" fill="white"/>
<path d="M16.0679 0.228032C14.7044 0.0756414 13.2954 0.0756414 11.9319 0.228032C11.0547 0.32607 10.3454 1.01682 10.242 1.90126C10.0789 3.29568 10.0789 4.70435 10.242 6.09877C10.3454 6.9832 11.0547 7.67396 11.9319 7.772C13.2954 7.92439 14.7044 7.92439 16.0679 7.772C16.9451 7.67396 17.6544 6.9832 17.7578 6.09877C17.9209 4.70435 17.9209 3.29568 17.7578 1.90126C17.6544 1.01682 16.9451 0.32607 16.0679 0.228032Z" fill="white"/>
<path d="M16.0679 10.228C14.7044 10.0756 13.2954 10.0756 11.9319 10.228C11.0547 10.3261 10.3454 11.0168 10.242 11.9013C10.0789 13.2957 10.0789 14.7043 10.242 16.0988C10.3454 16.9832 11.0547 17.674 11.9319 17.772C13.2954 17.9244 14.7044 17.9244 16.0679 17.772C16.9451 17.674 17.6544 16.9832 17.7578 16.0988C17.9209 14.7043 17.9209 13.2957 17.7578 11.9013C17.6544 11.0168 16.9451 10.3261 16.0679 10.228Z" fill="white"/>
</svg>
