<svg width="24" height="24" viewBox="0 0 24 24" fill="none" xmlns="http://www.w3.org/2000/svg">
<path fill-rule="evenodd" clip-rule="evenodd" d="M16.1315 4.178C16.1465 4.196 16.1605 4.2155 16.173 4.235L16.1735 4.236L16.175 4.2385L16.1795 4.246L16.1955 4.2725C16.2871 4.42518 16.3757 4.57971 16.461 4.736C16.631 5.047 16.8565 5.486 17.0825 6.005C17.53 7.03 18 8.4135 18 9.7315C18 11.223 16.9925 12.05 16.1065 12.477C15.6647 12.6867 15.1984 12.8404 14.7185 12.9345C13.9796 13.6205 13.0082 14.0011 12 13.9995C11.3987 14.0002 10.8051 13.865 10.2634 13.6042C9.72168 13.3433 9.24588 12.9635 8.8715 12.493L8.8485 12.491C8.73979 12.4811 8.63153 12.4668 8.524 12.448C8.18384 12.3905 7.85269 12.2886 7.539 12.145C7.174 11.975 6.786 11.714 6.489 11.3135C6.1875 10.907 6 10.384 6 9.7315C6 8.498 6.601 7.0965 7.153 6.0555C7.48517 5.4314 7.85346 4.8272 8.256 4.246L8.272 4.2235L8.278 4.214C8.34105 4.11845 8.41002 4.02693 8.4845 3.94C8.67954 3.71489 8.90115 3.51425 9.1445 3.3425C9.7515 2.9105 10.6865 2.5 12.0275 2.5C13.365 2.5 14.3835 2.9085 15.0695 3.3215C15.412 3.528 15.6715 3.735 15.848 3.8935C15.9444 3.98034 16.0362 4.07213 16.123 4.1685L16.128 4.1745L16.1305 4.177L16.1315 4.178ZM9.1185 4.756C9.11105 4.76868 9.10304 4.78103 9.0945 4.793L9.0935 4.794L9.0895 4.799L9.073 4.823C8.96835 4.97292 8.8665 5.12478 8.7675 5.2785C8.5675 5.5885 8.3015 6.0235 8.0365 6.5235C7.4935 7.5475 7 8.7615 7 9.7315C7 10.181 7.125 10.4925 7.292 10.718C7.464 10.949 7.7015 11.118 7.9615 11.239C8.085 11.2965 8.21 11.342 8.329 11.3775C8.234 10.9484 8.16239 10.5144 8.1145 10.0775C8.058 9.5405 8.0415 8.945 8.1425 8.4185C8.242 7.9025 8.4765 7.348 9.0135 7.0595C9.728 6.676 10.937 6.163 12.003 5.8095C12.5345 5.633 13.053 5.4885 13.4675 5.4225C13.671 5.3905 13.88 5.3725 14.064 5.391C14.208 5.406 14.5065 5.4605 14.6715 5.731C16.0115 7.6655 16.0315 9.438 15.692 10.7325C15.594 11.107 15.467 11.4385 15.336 11.7205C15.45 11.6772 15.5621 11.6292 15.672 11.5765C16.397 11.2265 17 10.6695 17 9.7315C17 8.6205 16.595 7.3885 16.166 6.4045C15.9373 5.88183 15.6792 5.37252 15.393 4.879L15.346 4.7995L15.334 4.787L15.3285 4.781C15.2806 4.73132 15.2309 4.68345 15.1795 4.6375C14.9857 4.46518 14.7761 4.3115 14.5535 4.1785C13.995 3.8415 13.1525 3.5 12.0275 3.5C10.9055 3.5 10.1715 3.8395 9.7245 4.1575C9.54744 4.2821 9.3861 4.42766 9.244 4.591C9.19992 4.64224 9.15885 4.69599 9.121 4.752L9.1185 4.756ZM9.3715 11.447C9.25189 10.9621 9.16436 10.4699 9.1095 9.9735C9.057 9.477 9.0505 8.9935 9.1245 8.607C9.201 8.211 9.3395 8.0195 9.4865 7.9405C10.14 7.5895 11.2945 7.098 12.318 6.7585C12.831 6.5885 13.289 6.4635 13.624 6.4105C13.7505 6.3905 13.8435 6.383 13.9065 6.3835C15.0055 8.0175 14.994 9.452 14.7245 10.479C14.608 10.9208 14.4308 11.3443 14.198 11.7375C14.1124 11.8821 14.0181 12.0214 13.9155 12.1545L13.912 12.159L13.9015 12.172L13.8995 12.174L13.899 12.1745C13.8415 12.2417 13.8028 12.323 13.787 12.41C13.4432 12.6651 13.0488 12.8437 12.6303 12.9337C12.2118 13.0237 11.7789 13.0231 11.3607 12.9318C10.9424 12.8406 10.5485 12.6609 10.2055 12.4048C9.86251 12.1487 9.5778 11.8221 9.3715 11.447ZM13.99 6.39C13.9856 6.38946 13.9812 6.38845 13.977 6.387C13.9815 6.38734 13.9858 6.38835 13.99 6.39Z" fill="black"/>
<path fill-rule="evenodd" clip-rule="evenodd" d="M8.957 14.4275C8.851 14.2165 8.7205 13.956 8.5 14.0065C5.798 14.6215 3 16.3975 3 18.285V21H21V18.285C21 16.798 19.264 15.381 17.2065 14.545L17.1995 14.5315L17.197 14.5265L17.1805 14.5345C16.634 14.3145 16.065 14.1345 15.5 14.0065C15.2485 13.949 14.9885 14.295 14.875 14.5115H9C8.9854 14.4836 8.97107 14.4556 8.957 14.4275ZM15.7015 15.088C15.92 15.148 16.1375 15.2165 16.352 15.2915C16.358 15.4625 16.345 15.664 16.317 15.87C16.2885 16.0833 16.243 16.2939 16.181 16.5H15.5C15.4072 16.5 15.3162 16.5259 15.2372 16.5748C15.1583 16.6236 15.0945 16.6934 15.053 16.7765L14.553 17.7765C14.5182 17.8459 14.5001 17.9224 14.5 18V19C14.5 19.1326 14.5527 19.2598 14.6464 19.3535C14.7402 19.4473 14.8674 19.5 15 19.5H16V18.5H15.5V18.118L15.809 17.5H17.191L17.5 18.118V18.5H17V19.5H18C18.1326 19.5 18.2598 19.4473 18.3536 19.3535C18.4473 19.2598 18.5 19.1326 18.5 19V18C18.4999 17.9224 18.4818 17.8459 18.447 17.7765L17.947 16.7765C17.9055 16.6934 17.8417 16.6236 17.7628 16.5748C17.6838 16.5259 17.5928 16.5 17.5 16.5H17.217C17.2788 16.2355 17.3202 15.9667 17.341 15.696C17.8285 15.926 18.2815 16.19 18.674 16.476C19.635 17.178 20 17.834 20 18.285V20H4V18.285C4 17.8335 4.365 17.1775 5.326 16.4765C5.809 16.124 6.3855 15.805 7.0035 15.541C7.02067 15.9394 7.0846 16.3345 7.194 16.718L7.198 16.732C6.89908 16.9211 6.67661 17.2097 6.56987 17.547C6.46313 17.8842 6.47899 18.2483 6.61466 18.5749C6.75033 18.9016 6.99707 19.1698 7.3113 19.3322C7.62554 19.4946 7.98705 19.5407 8.33198 19.4624C8.67692 19.3841 8.98309 19.1864 9.19642 18.9043C9.40975 18.6221 9.51651 18.2737 9.49785 17.9205C9.47919 17.5673 9.33631 17.232 9.09443 16.9739C8.85256 16.7158 8.52727 16.5515 8.176 16.51C8.1121 16.3008 8.06528 16.0867 8.036 15.87C8.00817 15.6761 7.99663 15.4803 8.0015 15.2845C8.00295 15.2471 8.00545 15.2097 8.009 15.1725C8.069 15.154 8.129 15.136 8.189 15.119L8.3965 15.512H15.4785L15.7015 15.088ZM8 18.5075C8.269 18.5075 8.5 18.2875 8.5 18C8.5 17.713 8.269 17.4925 8 17.4925C7.731 17.4925 7.5 17.7125 7.5 18C7.5 18.287 7.731 18.5075 8 18.5075Z" fill="black"/>
</svg>
