<svg width="52" height="52" viewBox="0 0 52 52" fill="none" xmlns="http://www.w3.org/2000/svg">
<g clip-path="url(#clip0_10_321)">
<path d="M13.8667 20.8H17.3333V17.3333H13.8667V20.8ZM34.6667 20.8H38.1333V17.3333H34.6667V20.8ZM35.0133 30.16C33.9639 31.5593 32.603 32.695 31.0386 33.4772C29.4742 34.2594 27.7491 34.6667 26 34.6667C24.2509 34.6667 22.5258 34.2594 20.9614 33.4772C19.397 32.695 18.0361 31.5593 16.9867 30.16L14.2133 32.24C20.1067 40.0989 31.8933 40.0989 37.7867 32.24L35.0133 30.16ZM3.46667 17.3333V8.66667H0V17.3333H3.46667ZM8.66667 3.46667H17.3333V0H8.66667V3.46667ZM3.46667 8.66667C3.46667 7.28754 4.01452 5.9649 4.98971 4.98971C5.9649 4.01452 7.28754 3.46667 8.66667 3.46667V0C6.36812 0 4.16372 0.913093 2.53841 2.53841C0.913093 4.16372 0 6.36812 0 8.66667H3.46667ZM0 34.6667V43.3333H3.46667V34.6667H0ZM8.66667 52H17.3333V48.5333H8.66667V52ZM0 43.3333C0 45.6319 0.913093 47.8363 2.53841 49.4616C4.16372 51.0869 6.36812 52 8.66667 52V48.5333C7.28754 48.5333 5.9649 47.9855 4.98971 47.0103C4.01452 46.0351 3.46667 44.7125 3.46667 43.3333H0ZM34.6667 3.46667H43.3333V0H34.6667V3.46667ZM48.5333 8.66667V17.3333H52V8.66667H48.5333ZM43.3333 3.46667C44.7125 3.46667 46.0351 4.01452 47.0103 4.98971C47.9855 5.9649 48.5333 7.28754 48.5333 8.66667H52C52 6.36812 51.0869 4.16372 49.4616 2.53841C47.8363 0.913093 45.6319 0 43.3333 0V3.46667ZM34.6667 52H43.3333V48.5333H34.6667V52ZM52 43.3333V34.6667H48.5333V43.3333H52ZM43.3333 52C45.6319 52 47.8363 51.0869 49.4616 49.4616C51.0869 47.8363 52 45.6319 52 43.3333H48.5333C48.5333 44.7125 47.9855 46.0351 47.0103 47.0103C46.0351 47.9855 44.7125 48.5333 43.3333 48.5333V52Z" fill="#4069E1"/>
</g>
<defs>
<clipPath id="clip0_10_321">
<rect width="52" height="52" fill="white"/>
</clipPath>
</defs>
</svg>
