<svg width="53" height="53" viewBox="0 0 53 53" fill="none" xmlns="http://www.w3.org/2000/svg">
<path d="M32.4684 0.772298C28.7982 -0.143189 24.9363 -0.274007 21.1784 0.537248C20.8879 0.599944 20.7033 0.8862 20.766 1.17662C20.8287 1.46704 21.115 1.65164 21.4054 1.58895C25.0042 0.812031 28.7115 0.940133 32.2377 1.82393C40.6705 3.93749 47.6897 10.2778 50.3632 18.5599C51.3971 21.7629 51.8363 25.1734 51.9242 28.7477C51.9315 29.0447 52.1782 29.2796 52.4753 29.2723C52.7723 29.265 53.0071 29.0183 52.9998 28.7212C52.9107 25.0979 52.4663 21.5996 51.4069 18.2909C48.6305 9.62017 41.2942 2.97381 32.4684 0.772298Z" fill="#4069E1"/>
<path d="M18.4483 2.39993C18.7347 2.32092 18.9028 2.02469 18.8238 1.73828C18.7448 1.45187 18.4486 1.28374 18.1622 1.36275C14.2322 2.44692 8.70382 6.19312 5.28724 11.1978C5.28591 11.1997 5.2846 11.2017 5.28329 11.2036C2.28331 15.7246 0.402753 21.406 0.9278 26.919C0.9283 26.9243 0.928877 26.9295 0.929531 26.9347C1.05536 27.9414 1.26661 28.9462 1.4781 29.9521C1.92354 32.0709 2.37007 34.1949 2.02202 36.3526C1.97471 36.6459 2.17413 36.922 2.46745 36.9693C2.76077 37.0167 3.03691 36.8172 3.08422 36.5239C3.44805 34.2684 2.99629 32.0684 2.54443 29.8679C2.33547 28.8503 2.12648 27.8325 1.99813 26.8091C1.50431 21.5998 3.28302 16.1652 6.17784 11.8015C9.46445 6.98893 14.7865 3.41012 18.4483 2.39993Z" fill="#4069E1"/>
<path d="M25.5078 3.60187C32.2619 3.18943 39.0146 5.94586 43.5497 11.2267C43.7432 11.4521 43.7174 11.7918 43.492 11.9853C43.2666 12.1789 42.927 12.1531 42.7334 11.9277C38.4208 6.9058 31.995 4.28264 25.5701 4.676C25.5678 4.67614 25.5655 4.67626 25.5632 4.67637C17.4382 5.06952 9.82907 10.5814 7.03028 18.3049C6.92906 18.5843 6.62055 18.7287 6.34122 18.6274C6.06188 18.5262 5.9175 18.2177 6.01872 17.9384C8.96714 9.80194 16.9572 4.01705 25.5078 3.60187Z" fill="#4069E1"/>
<path d="M45.1886 13.5769C45.0229 13.3303 44.6887 13.2646 44.4421 13.4303C44.1954 13.5959 44.1298 13.9301 44.2954 14.1768C46.8095 17.9203 47.849 21.9939 48.2599 26.828C48.2851 27.1241 48.5455 27.3437 48.8415 27.3185C49.1376 27.2933 49.3572 27.0329 49.332 26.7369C48.9121 21.7971 47.8401 17.525 45.1886 13.5769Z" fill="#4069E1"/>
<path d="M48.9723 29.0209C49.2689 29.0024 49.5243 29.2277 49.5428 29.5243C49.7456 32.7682 49.7474 36.4384 49.3886 39.1506C49.3496 39.4452 49.0792 39.6523 48.7847 39.6134C48.4902 39.5744 48.283 39.304 48.3219 39.0095C48.6678 36.3954 48.6697 32.803 48.469 29.5914C48.4504 29.2949 48.6758 29.0394 48.9723 29.0209Z" fill="#4069E1"/>
<path d="M6.2179 20.9106C6.28763 20.6218 6.11003 20.3311 5.82122 20.2614C5.53241 20.1916 5.24176 20.3692 5.17202 20.6581C4.77717 22.2934 4.57219 23.9734 4.56407 25.655C4.5557 27.3882 4.87887 29.08 5.20216 30.7724C5.46662 32.1569 5.73117 33.5418 5.81439 34.9501C5.9237 36.8001 5.53456 38.6529 4.86213 40.4162C4.75627 40.6938 4.8955 41.0047 5.1731 41.1105C5.45071 41.2164 5.76158 41.0772 5.86744 40.7996C6.57821 38.9357 7.00905 36.9279 6.88844 34.8867C6.80579 33.4879 6.54127 32.1111 6.27685 30.7348C5.95419 29.0554 5.63169 27.3767 5.63998 25.6602C5.6477 24.0624 5.8425 22.4653 6.2179 20.9106Z" fill="#4069E1"/>
<path d="M20.3339 8.95588C20.4446 9.23159 20.3109 9.54485 20.0351 9.65557C14.458 11.8953 10.2698 16.9496 9.41542 22.9096C9.05847 25.3997 9.44412 27.8662 9.82966 30.332C10.0468 31.7207 10.2639 33.1091 10.3483 34.5014C10.5313 37.5205 10.1874 40.8367 8.22258 43.8539C8.06045 44.1029 7.72718 44.1733 7.47821 44.0112C7.22924 43.849 7.15884 43.5158 7.32097 43.2668C9.11112 40.5178 9.44997 37.4643 9.27431 34.5665C9.18867 33.1538 8.97294 31.7493 8.75735 30.3457C8.37053 27.8273 7.98415 25.3117 8.35038 22.7569C9.26265 16.3932 13.7231 11.031 19.6342 8.65715C19.9099 8.54642 20.2232 8.68017 20.3339 8.95588Z" fill="#4069E1"/>
<path d="M39.2196 12.0187C34.8197 7.8977 28.4427 6.4594 22.647 7.73061C22.3568 7.79426 22.1731 8.08112 22.2368 8.37134C22.3005 8.66155 22.5873 8.84521 22.8775 8.78155C28.3656 7.57781 34.3703 8.95096 38.4841 12.804C41.9514 16.0515 43.9649 20.777 44.4919 25.9326C44.5222 26.2282 44.7863 26.4433 45.0818 26.4131C45.3774 26.3828 45.5925 26.1187 45.5623 25.8232C45.015 20.4697 42.9165 15.4813 39.2196 12.0187Z" fill="#4069E1"/>
<path d="M45.4497 28.3852C45.7453 28.3548 46.0095 28.5698 46.0398 28.8654C46.5507 33.8399 46.3305 39.2129 45.5592 44.4106C45.5156 44.7045 45.242 44.9074 44.9482 44.8638C44.6543 44.8202 44.4514 44.5466 44.495 44.2527C45.2555 39.1272 45.4697 33.8455 44.9695 28.9753C44.9392 28.6798 45.1542 28.4156 45.4497 28.3852Z" fill="#4069E1"/>
<path d="M26.6942 10.9331C18.4506 10.9331 11.7526 17.5099 11.7526 25.6412C11.7526 26.5097 11.8296 27.3608 11.9766 28.1883C12.0285 28.4809 12.3078 28.6759 12.6003 28.624C12.8928 28.572 13.0879 28.2928 13.0359 28.0002C12.8999 27.2341 12.8285 26.446 12.8285 25.6412C12.8285 18.1207 19.0282 12.009 26.6942 12.009C30.1586 12.009 33.3238 13.2577 35.7533 15.3209C35.9797 15.5132 36.3192 15.4855 36.5115 15.2591C36.7038 15.0326 36.6762 14.6931 36.4497 14.5008C33.8317 12.2775 30.4214 10.9331 26.6942 10.9331Z" fill="#4069E1"/>
<path d="M37.655 16.5066C37.8695 16.3009 38.21 16.308 38.4157 16.5225C40.7898 18.9982 41.5498 22.8894 42.0526 26.1549C42.619 29.8332 42.7055 33.4216 42.7055 35.0854C42.7055 35.3825 42.4647 35.6234 42.1676 35.6234C41.8704 35.6234 41.6296 35.3825 41.6296 35.0854C41.6296 33.4485 41.5439 29.9208 40.9892 26.3186C40.5224 23.287 39.8494 19.5721 37.6391 17.2672C37.4335 17.0527 37.4406 16.7122 37.655 16.5066Z" fill="#4069E1"/>
<path d="M42.5689 38.1663C42.5925 37.8701 42.3716 37.6109 42.0754 37.5873C41.7793 37.5637 41.52 37.7846 41.4964 38.0808C41.2322 41.3945 40.887 44.7047 40.1865 47.7624C40.1202 48.052 40.3012 48.3405 40.5908 48.4069C40.8804 48.4732 41.1689 48.2922 41.2353 48.0026C41.9542 44.8643 42.304 41.4889 42.5689 38.1663Z" fill="#4069E1"/>
<path d="M12.8425 30.1683C13.134 30.1109 13.4169 30.3007 13.4743 30.5922C14.6117 36.3684 13.8259 41.6157 10.8138 46.212C10.6509 46.4605 10.3174 46.53 10.0689 46.3671C9.82044 46.2043 9.75101 45.8708 9.91386 45.6223C12.748 41.2976 13.5107 36.3461 12.4186 30.8001C12.3612 30.5086 12.551 30.2257 12.8425 30.1683Z" fill="#4069E1"/>
<path d="M26.6942 14.4334C21.343 14.4334 16.0934 18.5757 15.5576 23.7816C15.323 26.0608 15.6525 28.3058 15.9822 30.5517C16.2701 32.5128 16.558 34.4746 16.4706 36.4605C16.2705 41.0053 14.937 44.7568 12.6457 47.8468C12.4688 48.0854 12.5188 48.4224 12.7574 48.5993C12.9961 48.7763 13.333 48.7263 13.51 48.4876C15.9401 45.2104 17.3368 41.2477 17.5455 36.5078C17.6325 34.5309 17.3437 32.5754 17.055 30.6211C16.7249 28.3863 16.3951 26.1532 16.6279 23.8918C17.0986 19.3184 21.8059 15.5093 26.6942 15.5093C28.9742 15.5093 34.8733 16.7439 36.7497 22.8567C37.9257 26.6873 38.2464 31.8715 37.9616 36.908C37.6768 41.9439 36.7909 46.7604 35.5996 49.849C35.4926 50.1262 35.6307 50.4375 35.9079 50.5445C36.1851 50.6514 36.4965 50.5133 36.6034 50.2361C37.8498 47.0048 38.7475 42.0664 39.0358 36.9688C39.324 31.8718 39.0072 26.5441 37.7783 22.5409C35.6954 15.7555 29.1658 14.4334 26.6942 14.4334Z" fill="#4069E1"/>
<path d="M18.4154 46.2129C18.6643 46.3752 18.7344 46.7085 18.5721 46.9574C18.2385 47.4688 17.9451 48.004 17.6516 48.5391C17.3581 49.0743 17.0646 49.6096 16.7309 50.1211C16.5686 50.37 16.2353 50.4401 15.9864 50.2778C15.7376 50.1155 15.6674 49.7822 15.8297 49.5333C16.1633 49.0219 16.4568 48.4867 16.7503 47.9516C17.0438 47.4164 17.3373 46.8811 17.6709 46.3696C17.8332 46.1207 18.1666 46.0506 18.4154 46.2129Z" fill="#4069E1"/>
<path d="M23.0218 20.0177C23.2688 19.8525 23.3351 19.5184 23.1699 19.2714C23.0047 19.0245 22.6706 18.9582 22.4236 19.1234C20.2934 20.5482 18.9864 22.5075 18.9864 25.3778C18.9864 27.087 19.2892 28.484 19.5998 29.9169C20.0645 32.0611 20.3797 34.2007 20.323 36.403C20.2543 39.0774 19.731 41.5212 18.7251 43.8493C18.6073 44.122 18.7329 44.4387 19.0056 44.5565C19.2783 44.6744 19.595 44.5488 19.7128 44.276C20.7763 41.8145 21.3265 39.2343 21.3986 36.4307C21.4575 34.1421 21.1335 31.9179 20.6515 29.6894C20.3403 28.2502 20.0624 26.9653 20.0624 25.3778C20.0624 22.9186 21.1442 21.2735 23.0218 20.0177Z" fill="#4069E1"/>
<path d="M25.1215 18.1275C27.3539 17.6724 29.7561 18.2348 31.5243 19.6659C34.6826 22.2223 35.1027 26.8842 35.443 30.6619L35.4604 30.8543C35.9002 35.7239 35.3968 40.4539 34.3825 45.2039C34.3205 45.4944 34.0346 45.6797 33.7441 45.6176C33.4535 45.5556 33.2683 45.2698 33.3303 44.9792C34.3293 40.3004 34.8162 35.6831 34.3888 30.9511C34.3747 30.7945 34.3606 30.6356 34.3464 30.4748L34.3462 30.4724C34.0438 27.0586 33.6651 22.7829 30.8474 20.5022C29.3357 19.2787 27.2624 18.7891 25.3364 19.1818C25.0453 19.2411 24.7612 19.0532 24.7018 18.7621C24.6425 18.471 24.8304 18.1869 25.1215 18.1275Z" fill="#4069E1"/>
<path d="M33.6222 47.8807C33.6955 47.5928 33.5215 47.3 33.2336 47.2267C32.9457 47.1534 32.6528 47.3274 32.5795 47.6153C32.2543 48.8927 31.7532 50.0458 31.1178 51.1074C30.9652 51.3623 31.0481 51.6927 31.3031 51.8453C31.558 51.9979 31.8884 51.9149 32.041 51.66C32.7257 50.5159 33.2693 49.2667 33.6222 47.8807Z" fill="#4069E1"/>
<path d="M30.9915 40.0739C31.2866 40.1088 31.4974 40.3763 31.4625 40.6714C30.9544 44.9649 29.8074 48.7941 27.9669 52.1153C27.8229 52.3752 27.4955 52.4691 27.2356 52.3251C26.9757 52.1811 26.8818 51.8537 27.0258 51.5938C28.7872 48.4153 29.8994 44.7252 30.3941 40.5449C30.429 40.2499 30.6965 40.039 30.9915 40.0739Z" fill="#4069E1"/>
<path d="M30.8806 25.0957C30.5077 23.1029 28.7973 21.5785 26.7209 21.5785C23.9091 21.5785 21.9364 24.4127 22.6316 27.0495C23.8078 31.704 24.0009 36.1899 23.2046 40.5105L23.2041 40.5137C22.5131 44.3929 21.1861 47.8826 19.376 50.8398C19.2209 51.0932 19.3005 51.4243 19.554 51.5795C19.8074 51.7346 20.1385 51.6549 20.2936 51.4015C22.1778 48.3234 23.5499 44.7064 24.263 40.7039C25.0898 36.2167 24.885 31.5734 23.674 26.7831L23.6725 26.7775C23.1511 24.805 24.6045 22.6544 26.7209 22.6544C28.2481 22.6544 29.5377 23.7779 29.8224 25.29C30.6054 29.832 31.0133 34.0439 30.7229 37.6703C30.6992 37.9664 30.92 38.2258 31.2162 38.2495C31.5124 38.2732 31.7717 38.0523 31.7954 37.7562C32.0964 33.9974 31.6715 29.6818 30.882 25.1033C30.8816 25.1007 30.8811 25.0982 30.8806 25.0957Z" fill="#4069E1"/>
<path d="M25.1156 48.3953C25.3799 48.5311 25.484 48.8554 25.3482 49.1197L23.9228 51.8937C23.787 52.158 23.4627 52.2621 23.1984 52.1263C22.9341 51.9905 22.83 51.6662 22.9658 51.402L24.3913 48.6279C24.5271 48.3637 24.8514 48.2595 25.1156 48.3953Z" fill="#4069E1"/>
<path d="M27.121 25.6144C27.053 25.3252 26.7635 25.1458 26.4742 25.2138C26.185 25.2817 26.0056 25.5713 26.0736 25.8605C27.8877 33.583 27.6386 40.3641 25.4288 46.1407C25.3227 46.4182 25.4616 46.7292 25.7391 46.8353C26.0166 46.9415 26.3276 46.8026 26.4337 46.5251C28.7378 40.502 28.972 33.4937 27.121 25.6144Z" fill="#4069E1"/>
</svg>
