<svg width="24" height="24" viewBox="0 0 24 24" fill="none" xmlns="http://www.w3.org/2000/svg">
<path d="M14.5605 16.9395L9.6225 12L14.5613 7.0605L13.5 6L7.5 12L13.5 18L14.5605 16.9395Z" fill="#2179EC" fill-opacity="0.5"/>
<path d="M12 1.5C17.79 1.5 22.5 6.21 22.5 12C22.5 17.79 17.79 22.5 12 22.5C6.21 22.5 1.5 17.79 1.5 12C1.5 6.21 6.21 1.5 12 1.5ZM12 21C16.9628 21 21 16.9628 21 12C21 7.03725 16.9628 3 12 3C7.03725 3 3 7.03725 3 12C3 16.9627 7.03725 21 12 21Z" fill="#2179EC" fill-opacity="0.5"/>
</svg>
