<svg width="28" height="29" viewBox="0 0 28 29" fill="none" xmlns="http://www.w3.org/2000/svg">
<path d="M10.6573 25.1245V21.5571C10.6573 20.6465 11.4009 19.9083 12.3183 19.9083H15.6715C16.112 19.9083 16.5344 20.082 16.8459 20.3912C17.1574 20.7004 17.3324 21.1198 17.3324 21.5571V25.1245C17.3296 25.5031 17.4792 25.8671 17.7478 26.1358C18.0165 26.4045 18.3821 26.5556 18.7635 26.5556H21.0512C22.1197 26.5583 23.1453 26.1389 23.9018 25.3898C24.6583 24.6408 25.0834 23.6237 25.0834 22.563V12.4002C25.0834 11.5434 24.7008 10.7307 24.0388 10.181L16.2564 4.01074C14.9027 2.92888 12.963 2.96381 11.6497 4.0937L4.04493 10.181C3.35161 10.7145 2.93723 11.5296 2.91675 12.4002V22.5527C2.91675 24.7634 4.72203 26.5556 6.94895 26.5556H9.18442C9.97651 26.5556 10.6202 25.9211 10.626 25.1348L10.6573 25.1245Z" fill="#A3A4B1"/>
</svg>
