<svg width="19" height="21" viewBox="0 0 19 21" fill="none" xmlns="http://www.w3.org/2000/svg">
<path d="M12.0794 2.41083C12.1928 3.09855 12.2773 3.78981 12.3331 4.48281C12.3389 4.55547 12.3124 4.62695 12.2608 4.67849L6.24591 10.6934C6.13292 10.8064 5.9465 10.7468 5.92052 10.5892C5.47425 7.88132 5.47425 5.11868 5.92052 2.41083L5.97474 2.08184C6.04841 1.63482 6.39016 1.27956 6.83398 1.18862C8.26313 0.895785 9.73681 0.895785 11.166 1.18862C11.6098 1.27956 11.9515 1.63482 12.0252 2.08183L12.0794 2.41083Z" fill="white"/>
<path d="M3.19306 12.0741C3.24202 12.4196 3.38145 12.7348 3.58664 12.9953C3.67285 13.1048 3.67537 13.264 3.57685 13.3625L2.87071 14.0686C2.77358 14.1658 2.6155 14.1669 2.52488 14.0637C2.09598 13.5751 1.80398 12.9626 1.7079 12.2845L1.25739 9.10523C1.19928 8.69511 1.48463 8.31553 1.89475 8.25742C2.30487 8.19931 2.68444 8.48466 2.74255 8.89478L3.19306 12.0741Z" fill="white"/>
<path d="M5.55625 15.3044L2.03033 18.8303C1.73744 19.1232 1.26256 19.1232 0.96967 18.8303C0.676777 18.5374 0.676777 18.0625 0.96967 17.7697L16.9697 1.76966C17.2626 1.47676 17.7374 1.47676 18.0303 1.76966C18.3232 2.06255 18.3232 2.53742 18.0303 2.83032L12.3322 8.52847C12.2764 9.21769 12.1922 9.90518 12.0794 10.5892L12.0252 10.9182C11.9515 11.3652 11.6098 11.7204 11.166 11.8114C10.3959 11.9692 9.61294 12.0419 8.83097 12.0297L6.94695 13.9137C9.01259 14.0436 11.0875 13.9773 13.1437 13.7146C14.0042 13.6047 14.6852 12.9331 14.8069 12.0741L15.2574 8.89478C15.3155 8.48466 15.6951 8.19931 16.1052 8.25742C16.5153 8.31553 16.8007 8.69511 16.7426 9.10523L16.292 12.2845C16.0755 13.8124 14.8644 15.007 13.3337 15.2025C12.1435 15.3546 10.9473 15.4437 9.75 15.47V19.5C9.75 19.9142 9.41421 20.25 9 20.25C8.58579 20.25 8.25 19.9142 8.25 19.5V15.47C7.3508 15.4503 6.45218 15.3951 5.55625 15.3044Z" fill="white"/>
</svg>
