<svg width="30" height="30" viewBox="0 0 30 30" fill="none" xmlns="http://www.w3.org/2000/svg">
<path d="M17.7075 3.98625C15.9211 3.62018 14.0789 3.62018 12.2925 3.98625C11.7375 4.09875 11.31 4.54375 11.2175 5.1025L11.1512 5.51375C10.5935 8.89842 10.5935 12.3516 11.1512 15.7362L11.2187 16.1487C11.31 16.7062 11.7375 17.15 12.2925 17.2637C14.08 17.63 15.9212 17.63 17.7075 17.2637C18.2625 17.1512 18.6887 16.7062 18.7825 16.1475L18.8487 15.7362C19.4075 12.3512 19.4075 8.89875 18.8487 5.51375L18.7812 5.10125C18.736 4.8286 18.6092 4.57608 18.4175 4.37701C18.2258 4.17794 17.9782 4.04169 17.7075 3.98625Z" fill="white"/>
<path d="M6.1188 12.8212C6.24078 12.8039 6.36496 12.8109 6.48426 12.8416C6.60357 12.8723 6.71564 12.9262 6.81409 13.0003C6.91253 13.0744 6.99541 13.1671 7.05799 13.2732C7.12057 13.3793 7.16163 13.4968 7.1788 13.6187L7.7413 17.5937C7.8938 18.6662 8.74505 19.5062 9.82005 19.6437C13.2601 20.0825 16.7401 20.0825 20.1801 19.6437C20.7033 19.577 21.1901 19.3402 21.5656 18.9698C21.9412 18.5994 22.1847 18.116 22.2588 17.5937L22.8213 13.6187C22.8385 13.4968 22.8796 13.3794 22.9422 13.2733C23.0048 13.1672 23.0877 13.0745 23.1861 13.0005C23.2846 12.9264 23.3966 12.8725 23.5159 12.8417C23.6352 12.811 23.7593 12.804 23.8813 12.8212C24.0033 12.8385 24.1206 12.8796 24.2267 12.9422C24.3328 13.0048 24.4255 13.0877 24.4996 13.1861C24.5736 13.2845 24.6276 13.3966 24.6583 13.5158C24.6891 13.6351 24.696 13.7593 24.6788 13.8812L24.1151 17.8562C23.9835 18.7853 23.5504 19.6455 22.8824 20.3045C22.2143 20.9635 21.3484 21.3848 20.4176 21.5037C18.9301 21.6937 17.4338 21.8037 15.9376 21.8375V26.875C15.9376 27.1236 15.8388 27.3621 15.663 27.5379C15.4871 27.7137 15.2487 27.8125 15.0001 27.8125C14.7514 27.8125 14.513 27.7137 14.3371 27.5379C14.1613 27.3621 14.0626 27.1236 14.0626 26.875V21.8375C12.5644 21.8049 11.069 21.6934 9.58255 21.5037C8.65175 21.3848 7.78577 20.9635 7.11774 20.3045C6.44972 19.6455 6.01663 18.7853 5.88505 17.8562L5.32255 13.8812C5.28759 13.6351 5.35184 13.3851 5.50116 13.1864C5.65048 12.9876 5.87265 12.8562 6.1188 12.8212Z" fill="white"/>
</svg>
