<svg width="30" height="30" viewBox="0 0 30 30" fill="none" xmlns="http://www.w3.org/2000/svg">
<path fill-rule="evenodd" clip-rule="evenodd" d="M19.2857 6.43929C19.2981 5.86452 19.1513 5.29753 18.8614 4.80105C18.5716 4.30458 18.15 3.89798 17.6434 3.62625C17.1367 3.35453 16.5648 3.22827 15.9909 3.26146C15.4169 3.29464 14.8634 3.48598 14.3914 3.81429L14.385 3.81857L6.09 9.64286H3.21429C1.45714 9.64286 0 11.1 0 12.8571V17.1429C0 18.9 1.45714 20.3571 3.21429 20.3571H6.08357L14.1836 26.1771L14.1986 26.1879C16.2771 27.6279 19.23 26.1364 19.2857 23.595V6.43929ZM29.5286 10.9179C29.8295 11.2192 29.9986 11.6277 29.9986 12.0536C29.9986 12.4795 29.8295 12.8879 29.5286 13.1893L27.72 15L29.5286 16.8107C29.8125 17.1154 29.967 17.5183 29.9597 17.9347C29.9523 18.3511 29.7836 18.7483 29.4892 19.0428C29.1947 19.3372 28.7975 19.5059 28.3811 19.5132C27.9648 19.5206 27.5618 19.366 27.2571 19.0821L25.4464 17.2736L23.6357 19.0821C23.4886 19.24 23.3112 19.3667 23.114 19.4545C22.9169 19.5424 22.7041 19.5896 22.4883 19.5934C22.2725 19.5972 22.0581 19.5575 21.858 19.4767C21.6579 19.3959 21.4761 19.2756 21.3235 19.1229C21.1709 18.9703 21.0506 18.7885 20.9697 18.5884C20.8889 18.3883 20.8492 18.174 20.853 17.9582C20.8568 17.7424 20.9041 17.5296 20.9919 17.3324C21.0797 17.1353 21.2064 16.9578 21.3643 16.8107L23.1729 15L21.3643 13.1893C21.0804 12.8846 20.9258 12.4817 20.9332 12.0653C20.9405 11.6489 21.1092 11.2517 21.4037 10.9572C21.6981 10.6628 22.0954 10.4941 22.5117 10.4868C22.9281 10.4794 23.3311 10.634 23.6357 10.9179L25.4464 12.7264L27.2571 10.9179C27.5585 10.6169 27.967 10.4478 28.3929 10.4478C28.8188 10.4478 29.2272 10.6169 29.5286 10.9179Z" fill="white"/>
</svg>
