<svg width="25" height="26" viewBox="0 0 25 26" fill="none" xmlns="http://www.w3.org/2000/svg">
<path d="M12.7778 16.3889C14.7108 16.3889 16.2778 14.8219 16.2778 12.8889C16.2778 10.9559 14.7108 9.38889 12.7778 9.38889C10.8448 9.38889 9.27783 10.9559 9.27783 12.8889C9.27783 14.8219 10.8448 16.3889 12.7778 16.3889Z" stroke="black" stroke-width="1.875"/>
<path opacity="0.5" d="M14.837 1.39956C14.4089 1.22223 13.8652 1.22223 12.7779 1.22223C11.6905 1.22223 11.1469 1.22223 10.7187 1.39956C10.4354 1.51683 10.178 1.68877 9.96121 1.90557C9.74442 2.12237 9.57247 2.37977 9.4552 2.66306C9.34787 2.92323 9.3047 3.22773 9.28837 3.6699C9.2811 3.98955 9.1927 4.30211 9.03148 4.57823C8.87026 4.85434 8.64151 5.08495 8.3667 5.2484C8.08775 5.40478 7.77362 5.48768 7.45383 5.48931C7.13403 5.49095 6.81907 5.41126 6.53854 5.25773C6.14654 5.05006 5.86304 4.93573 5.58187 4.8984C4.96858 4.81774 4.34835 4.98392 3.85754 5.3604C3.4912 5.6439 3.2182 6.11406 2.67454 7.05556C2.13087 7.99706 1.85787 8.46723 1.79837 8.92806C1.75828 9.23192 1.77844 9.54071 1.85771 9.83677C1.93699 10.1328 2.07381 10.4104 2.26037 10.6536C2.43304 10.8776 2.67454 11.0654 3.04904 11.3011C3.60087 11.6476 3.95554 12.2379 3.95554 12.8889C3.95554 13.5399 3.60087 14.1302 3.04904 14.4756C2.67454 14.7124 2.43187 14.9002 2.26037 15.1242C2.07381 15.3674 1.93699 15.645 1.85771 15.941C1.77844 16.2371 1.75828 16.5459 1.79837 16.8497C1.85904 17.3094 2.13087 17.7807 2.67337 18.7222C3.2182 19.6637 3.49004 20.1339 3.85754 20.4174C4.10071 20.604 4.37826 20.7408 4.67433 20.8201C4.97039 20.8993 5.27918 20.9195 5.58304 20.8794C5.86304 20.8421 6.14654 20.7277 6.53854 20.5201C6.81907 20.3665 7.13403 20.2868 7.45383 20.2885C7.77362 20.2901 8.08775 20.373 8.3667 20.5294C8.9302 20.8561 9.26504 21.4569 9.28837 22.1079C9.3047 22.5512 9.3467 22.8546 9.4552 23.1147C9.57247 23.398 9.74442 23.6554 9.96121 23.8722C10.178 24.089 10.4354 24.261 10.7187 24.3782C11.1469 24.5556 11.6905 24.5556 12.7779 24.5556C13.8652 24.5556 14.4089 24.5556 14.837 24.3782C15.1203 24.261 15.3777 24.089 15.5945 23.8722C15.8113 23.6554 15.9833 23.398 16.1005 23.1147C16.2079 22.8546 16.251 22.5512 16.2674 22.1079C16.2907 21.4569 16.6255 20.8549 17.189 20.5294C17.468 20.373 17.7821 20.2901 18.1019 20.2885C18.4217 20.2868 18.7367 20.3665 19.0172 20.5201C19.4092 20.7277 19.6927 20.8421 19.9727 20.8794C20.2766 20.9195 20.5853 20.8993 20.8814 20.8201C21.1775 20.7408 21.455 20.604 21.6982 20.4174C22.0657 20.1351 22.3375 19.6637 22.8812 18.7222C23.4249 17.7807 23.6979 17.3106 23.7574 16.8497C23.7975 16.5459 23.7773 16.2371 23.698 15.941C23.6188 15.645 23.4819 15.3674 23.2954 15.1242C23.1227 14.9002 22.8812 14.7124 22.5067 14.4767C22.2334 14.3106 22.0068 14.0777 21.8482 13.8C21.6897 13.5222 21.6043 13.2087 21.6002 12.8889C21.6002 12.2379 21.9549 11.6476 22.5067 11.3022C22.8812 11.0654 23.1239 10.8776 23.2954 10.6536C23.4819 10.4104 23.6188 10.1328 23.698 9.83677C23.7773 9.54071 23.7975 9.23192 23.7574 8.92806C23.6967 8.4684 23.4249 7.99706 22.8824 7.05556C22.3375 6.11406 22.0657 5.6439 21.6982 5.3604C21.455 5.17384 21.1775 5.03701 20.8814 4.95774C20.5853 4.87847 20.2766 4.8583 19.9727 4.8984C19.6927 4.93573 19.4092 5.05006 19.016 5.25773C18.7356 5.41105 18.4209 5.49062 18.1013 5.48899C17.7818 5.48736 17.4678 5.40457 17.189 5.2484C16.9142 5.08495 16.6855 4.85434 16.5243 4.57823C16.363 4.30211 16.2746 3.98955 16.2674 3.6699C16.251 3.22656 16.209 2.92323 16.1005 2.66306C15.9833 2.37977 15.8113 2.12237 15.5945 1.90557C15.3777 1.68877 15.1203 1.51683 14.837 1.39956Z" stroke="black" stroke-width="1.875"/>
</svg>
