<svg width="76" height="20" viewBox="0 0 76 20" fill="none" xmlns="http://www.w3.org/2000/svg">
<path d="M8.95919 10.16C8.82969 10.2855 8.77019 10.467 8.79969 10.645L9.24419 13.105C9.28169 13.3135 9.19369 13.5245 9.01919 13.645C8.84819 13.77 8.62069 13.785 8.43419 13.685L6.21969 12.53C6.14269 12.489 6.05719 12.467 5.96969 12.4645H5.83419C5.78719 12.4715 5.74119 12.4865 5.69919 12.5095L3.48419 13.67C3.37469 13.725 3.25069 13.7445 3.12919 13.725C2.83319 13.669 2.63569 13.387 2.68419 13.0895L3.12919 10.6295C3.15869 10.45 3.09919 10.2675 2.96969 10.14L1.16419 8.39C1.01319 8.2435 0.960694 8.0235 1.02969 7.825C1.09669 7.627 1.26769 7.4825 1.47419 7.45L3.95919 7.0895C4.14819 7.07 4.31419 6.955 4.39919 6.785L5.49419 4.54C5.52019 4.49 5.55369 4.444 5.59419 4.405L5.63919 4.37C5.66269 4.344 5.68969 4.3225 5.71969 4.305L5.77419 4.285L5.85919 4.25H6.06969C6.25769 4.2695 6.42319 4.382 6.50969 4.55L7.61919 6.785C7.69919 6.9485 7.85469 7.062 8.03419 7.0895L10.5192 7.45C10.7292 7.48 10.9047 7.625 10.9742 7.825C11.0397 8.0255 10.9832 8.2455 10.8292 8.39L8.95919 10.16Z" fill="#FFC000"/>
<path d="M24.9592 10.16C24.8297 10.2855 24.7702 10.467 24.7997 10.645L25.2442 13.105C25.2817 13.3135 25.1937 13.5245 25.0192 13.645C24.8482 13.77 24.6207 13.785 24.4342 13.685L22.2197 12.53C22.1427 12.489 22.0572 12.467 21.9697 12.4645H21.8342C21.7872 12.4715 21.7412 12.4865 21.6992 12.5095L19.4842 13.67C19.3747 13.725 19.2507 13.7445 19.1292 13.725C18.8332 13.669 18.6357 13.387 18.6842 13.0895L19.1292 10.6295C19.1587 10.45 19.0992 10.2675 18.9697 10.14L17.1642 8.39C17.0132 8.2435 16.9607 8.0235 17.0297 7.825C17.0967 7.627 17.2677 7.4825 17.4742 7.45L19.9592 7.0895C20.1482 7.07 20.3142 6.955 20.3992 6.785L21.4942 4.54C21.5202 4.49 21.5537 4.444 21.5942 4.405L21.6392 4.37C21.6627 4.344 21.6897 4.3225 21.7197 4.305L21.7742 4.285L21.8592 4.25H22.0697C22.2577 4.2695 22.4232 4.382 22.5097 4.55L23.6192 6.785C23.6992 6.9485 23.8547 7.062 24.0342 7.0895L26.5192 7.45C26.7292 7.48 26.9047 7.625 26.9742 7.825C27.0397 8.0255 26.9832 8.2455 26.8292 8.39L24.9592 10.16Z" fill="#FFC000"/>
<path d="M40.9592 10.16C40.8297 10.2855 40.7702 10.467 40.7997 10.645L41.2442 13.105C41.2817 13.3135 41.1937 13.5245 41.0192 13.645C40.8482 13.77 40.6207 13.785 40.4342 13.685L38.2197 12.53C38.1427 12.489 38.0572 12.467 37.9697 12.4645H37.8342C37.7872 12.4715 37.7412 12.4865 37.6992 12.5095L35.4842 13.67C35.3747 13.725 35.2507 13.7445 35.1292 13.725C34.8332 13.669 34.6357 13.387 34.6842 13.0895L35.1292 10.6295C35.1587 10.45 35.0992 10.2675 34.9697 10.14L33.1642 8.39C33.0132 8.2435 32.9607 8.0235 33.0297 7.825C33.0967 7.627 33.2677 7.4825 33.4742 7.45L35.9592 7.0895C36.1482 7.07 36.3142 6.955 36.3992 6.785L37.4942 4.54C37.5202 4.49 37.5537 4.444 37.5942 4.405L37.6392 4.37C37.6627 4.344 37.6897 4.3225 37.7197 4.305L37.7742 4.285L37.8592 4.25H38.0697C38.2577 4.2695 38.4232 4.382 38.5097 4.55L39.6192 6.785C39.6992 6.9485 39.8547 7.062 40.0342 7.0895L42.5192 7.45C42.7292 7.48 42.9047 7.625 42.9742 7.825C43.0397 8.0255 42.9832 8.2455 42.8292 8.39L40.9592 10.16Z" fill="#FFC000"/>
<path d="M56.9592 10.16C56.8297 10.2855 56.7702 10.467 56.7997 10.645L57.2442 13.105C57.2817 13.3135 57.1937 13.5245 57.0192 13.645C56.8482 13.77 56.6207 13.785 56.4342 13.685L54.2197 12.53C54.1427 12.489 54.0572 12.467 53.9697 12.4645H53.8342C53.7872 12.4715 53.7412 12.4865 53.6992 12.5095L51.4842 13.67C51.3747 13.725 51.2507 13.7445 51.1292 13.725C50.8332 13.669 50.6357 13.387 50.6842 13.0895L51.1292 10.6295C51.1587 10.45 51.0992 10.2675 50.9697 10.14L49.1642 8.39C49.0132 8.2435 48.9607 8.0235 49.0297 7.825C49.0967 7.627 49.2677 7.4825 49.4742 7.45L51.9592 7.0895C52.1482 7.07 52.3142 6.955 52.3992 6.785L53.4942 4.54C53.5202 4.49 53.5537 4.444 53.5942 4.405L53.6392 4.37C53.6627 4.344 53.6897 4.3225 53.7197 4.305L53.7742 4.285L53.8592 4.25H54.0697C54.2577 4.2695 54.4232 4.382 54.5097 4.55L55.6192 6.785C55.6992 6.9485 55.8547 7.062 56.0342 7.0895L58.5192 7.45C58.7292 7.48 58.9047 7.625 58.9742 7.825C59.0397 8.0255 58.9832 8.2455 58.8292 8.39L56.9592 10.16Z" fill="#FFC000"/>
<g opacity="0.4">
<path d="M72.9592 10.16C72.8297 10.2855 72.7702 10.467 72.7997 10.645L73.2442 13.105C73.2817 13.3135 73.1937 13.5245 73.0192 13.645C72.8482 13.77 72.6207 13.785 72.4342 13.685L70.2197 12.53C70.1427 12.489 70.0572 12.467 69.9697 12.4645H69.8342C69.7872 12.4715 69.7412 12.4865 69.6992 12.5095L67.4842 13.67C67.3747 13.725 67.2507 13.7445 67.1292 13.725C66.8332 13.669 66.6357 13.387 66.6842 13.0895L67.1292 10.6295C67.1587 10.45 67.0992 10.2675 66.9697 10.14L65.1642 8.39C65.0132 8.2435 64.9607 8.0235 65.0297 7.825C65.0967 7.627 65.2677 7.4825 65.4742 7.45L67.9592 7.0895C68.1482 7.07 68.3142 6.955 68.3992 6.785L69.4942 4.54C69.5202 4.49 69.5537 4.444 69.5942 4.405L69.6392 4.37C69.6627 4.344 69.6897 4.3225 69.7197 4.305L69.7742 4.285L69.8592 4.25H70.0697C70.2577 4.2695 70.4232 4.382 70.5097 4.55L71.6192 6.785C71.6992 6.9485 71.8547 7.062 72.0342 7.0895L74.5192 7.45C74.7292 7.48 74.9047 7.625 74.9742 7.825C75.0397 8.0255 74.9832 8.2455 74.8292 8.39L72.9592 10.16Z" fill="#FFC000"/>
</g>
<mask id="mask0_31_577" style="mask-type:alpha" maskUnits="userSpaceOnUse" x="62" y="0" width="8" height="20">
<rect x="62" width="8" height="20" fill="#C4C4C4"/>
</mask>
<g mask="url(#mask0_31_577)">
<path d="M72.9592 10.16C72.8297 10.2855 72.7702 10.467 72.7997 10.645L73.2442 13.105C73.2817 13.3135 73.1937 13.5245 73.0192 13.645C72.8482 13.77 72.6207 13.785 72.4342 13.685L70.2197 12.53C70.1427 12.489 70.0572 12.467 69.9697 12.4645H69.8342C69.7872 12.4715 69.7412 12.4865 69.6992 12.5095L67.4842 13.67C67.3747 13.725 67.2507 13.7445 67.1292 13.725C66.8332 13.669 66.6357 13.387 66.6842 13.0895L67.1292 10.6295C67.1587 10.45 67.0992 10.2675 66.9697 10.14L65.1642 8.39C65.0132 8.2435 64.9607 8.0235 65.0297 7.825C65.0967 7.627 65.2677 7.4825 65.4742 7.45L67.9592 7.0895C68.1482 7.07 68.3142 6.955 68.3992 6.785L69.4942 4.54C69.5202 4.49 69.5537 4.444 69.5942 4.405L69.6392 4.37C69.6627 4.344 69.6897 4.3225 69.7197 4.305L69.7742 4.285L69.8592 4.25H70.0697C70.2577 4.2695 70.4232 4.382 70.5097 4.55L71.6192 6.785C71.6992 6.9485 71.8547 7.062 72.0342 7.0895L74.5192 7.45C74.7292 7.48 74.9047 7.625 74.9742 7.825C75.0397 8.0255 74.9832 8.2455 74.8292 8.39L72.9592 10.16Z" fill="#FFC000"/>
</g>
</svg>
