<svg width="30" height="31" viewBox="0 0 30 31" fill="none" xmlns="http://www.w3.org/2000/svg">
<path d="M16.4063 15.5C16.4063 15.7781 16.3238 16.05 16.1693 16.2813C16.0147 16.5125 15.7951 16.6928 15.5381 16.7992C15.2812 16.9056 14.9984 16.9335 14.7257 16.8792C14.4529 16.825 14.2023 16.691 14.0056 16.4944C13.809 16.2977 13.675 16.0471 13.6208 15.7743C13.5665 15.5016 13.5944 15.2188 13.7008 14.9619C13.8072 14.7049 13.9875 14.4853 14.2187 14.3307C14.45 14.1762 14.7219 14.0938 15 14.0938C15.373 14.0938 15.7306 14.2419 15.9944 14.5056C16.2581 14.7694 16.4063 15.127 16.4063 15.5ZM22.9688 14.0938C22.6906 14.0938 22.4187 14.1762 22.1875 14.3307C21.9562 14.4853 21.776 14.7049 21.6695 14.9619C21.5631 15.2188 21.5353 15.5016 21.5895 15.7743C21.6438 16.0471 21.7777 16.2977 21.9744 16.4944C22.171 16.691 22.4216 16.825 22.6944 16.8792C22.9672 16.9335 23.2499 16.9056 23.5069 16.7992C23.7639 16.6928 23.9835 16.5125 24.138 16.2813C24.2925 16.05 24.375 15.7781 24.375 15.5C24.375 15.127 24.2268 14.7694 23.9631 14.5056C23.6994 14.2419 23.3417 14.0938 22.9688 14.0938ZM7.03125 14.0938C6.75312 14.0938 6.48124 14.1762 6.24998 14.3307C6.01872 14.4853 5.83848 14.7049 5.73205 14.9619C5.62561 15.2188 5.59776 15.5016 5.65202 15.7743C5.70628 16.0471 5.84021 16.2977 6.03688 16.4944C6.23355 16.691 6.48412 16.825 6.75691 16.8792C7.02969 16.9335 7.31244 16.9056 7.5694 16.7992C7.82636 16.6928 8.04598 16.5125 8.20051 16.2813C8.35503 16.05 8.4375 15.7781 8.4375 15.5C8.4375 15.127 8.28934 14.7694 8.02562 14.5056C7.7619 14.2419 7.40421 14.0938 7.03125 14.0938Z" fill="black"/>
</svg>
