<svg width="14" height="14" viewBox="0 0 14 14" fill="none" xmlns="http://www.w3.org/2000/svg">
<path opacity="0.4" d="M9.70477 0.166821H3.92478C1.66478 0.166821 0.144775 1.75349 0.144775 4.11349V9.56015C0.144775 11.9135 1.66478 13.5002 3.92478 13.5002H9.70477C11.9648 13.5002 13.4781 11.9135 13.4781 9.56015V4.11349C13.4781 1.75349 11.9648 0.166821 9.70477 0.166821Z" fill="white"/>
<path d="M9.19381 9.3765C9.10648 9.3765 9.01848 9.35384 8.93781 9.3065L6.32048 7.74517C6.16981 7.6545 6.07715 7.49117 6.07715 7.31517V3.9505C6.07715 3.6745 6.30115 3.4505 6.57715 3.4505C6.85315 3.4505 7.07715 3.6745 7.07715 3.9505V7.03117L9.45048 8.4465C9.68715 8.5885 9.76515 8.89517 9.62382 9.1325C9.52981 9.28917 9.36381 9.3765 9.19381 9.3765Z" fill="#2179EC"/>
</svg>
