<svg width="16" height="16" viewBox="0 0 16 16" fill="none" xmlns="http://www.w3.org/2000/svg">
<mask id="path-1-outside-1_31_544" maskUnits="userSpaceOnUse" x="0.333496" y="2.33353" width="16" height="12" fill="black">
<rect fill="white" x="0.333496" y="2.33353" width="16" height="12"/>
<path fill-rule="evenodd" clip-rule="evenodd" d="M5.39285 3.33428L5.70641 3.33469C5.76001 3.33476 5.81421 3.33484 5.8689 3.33492L6.20215 3.33546C6.93334 3.33671 7.71217 3.33842 8.30575 3.33966L8.56571 3.34019C8.60656 3.34027 8.64611 3.34035 8.68424 3.34042C10.1842 3.23509 11.5382 4.34842 11.6589 5.84242C11.66 5.85775 11.661 5.94471 11.6618 6.10289L13.0457 4.96956C13.4484 4.63956 13.9904 4.57489 14.4604 4.79689C14.9304 5.02022 15.2224 5.48156 15.2217 6.00156L15.2137 10.9009C15.213 11.4209 14.9204 11.8822 14.451 12.1036C14.267 12.1909 14.0724 12.2329 13.879 12.2329C13.5784 12.2329 13.2817 12.1296 13.037 11.9289L11.6649 10.7904C11.6649 10.8097 11.6649 10.829 11.6649 10.8484C11.6929 11.5524 11.4422 12.2304 10.9582 12.7571C10.4496 13.3111 9.74824 13.6331 8.98424 13.6644C8.97127 13.6654 8.89825 13.666 8.77843 13.6664L8.51505 13.6668C8.41231 13.6669 8.29559 13.6669 8.16774 13.6669L7.60378 13.6663C7.55296 13.6662 7.50134 13.6662 7.44901 13.6661L7.1274 13.6656C6.36116 13.6643 5.49803 13.6623 4.82886 13.6608L4.55479 13.6603C4.46796 13.6601 4.38594 13.6599 4.30957 13.6598C4.2389 13.6651 4.16823 13.6678 4.09757 13.6678C2.68823 13.6684 1.4589 12.5884 1.3429 11.1718L1.3428 11.1703L1.34217 11.1571C1.34213 11.1557 1.34208 11.1541 1.34203 11.1523L1.34157 11.1313C1.34152 11.1284 1.34147 11.1251 1.34141 11.1217L1.34091 11.0828C1.34085 11.0776 1.34079 11.0721 1.34073 11.0662L1.3402 11.0032C1.34014 10.995 1.34008 10.9864 1.34002 10.9774L1.33966 10.9178C1.3396 10.907 1.33954 10.8956 1.33948 10.8838L1.33893 10.7631C1.33888 10.7481 1.33882 10.7325 1.33876 10.7163L1.33824 10.5539C1.33818 10.534 1.33812 10.5134 1.33807 10.4921L1.33758 10.2817C1.33753 10.2561 1.33748 10.2298 1.33743 10.2028L1.33687 9.83984C1.33683 9.80629 1.33679 9.77188 1.33675 9.7366L1.33623 9.13882C1.3362 9.09421 1.33618 9.04861 1.33615 9.00201L1.33614 6.39006C1.33617 6.31084 1.3362 6.2303 1.33623 6.14842C1.30423 5.46109 1.55357 4.77842 2.04023 4.24709C2.54823 3.69242 3.2489 3.36909 4.01357 3.33642C4.02386 3.33568 4.07259 3.33512 4.15296 3.33472L4.2964 3.33422C4.32397 3.33416 4.35332 3.3341 4.38432 3.33405L5.24306 3.33412C5.2921 3.33417 5.34207 3.33422 5.39285 3.33428ZM8.72024 4.33909C7.87853 4.33787 6.84935 4.3364 5.97108 4.33544L5.50902 4.33497C5.43518 4.3349 5.3631 4.33484 5.29303 4.33478L4.13364 4.33482C4.09001 4.33502 4.06179 4.33531 4.0509 4.33576C3.5589 4.35642 3.1049 4.56509 2.77757 4.92242C2.47223 5.25642 2.3149 5.68309 2.33557 6.12576L2.33612 8.70107C2.33615 8.75792 2.33618 8.81438 2.33621 8.87037L2.33682 9.6664C2.33687 9.71593 2.33692 9.76464 2.33698 9.81244L2.33732 10.0878C2.33738 10.1317 2.33744 10.1746 2.33751 10.2163L2.33816 10.5596C2.33887 10.8687 2.33977 11.0692 2.3409 11.1078C2.4169 12.0311 3.28223 12.7371 4.2729 12.6611C4.37766 12.6612 4.48531 12.6614 4.59519 12.6616L4.93088 12.6621C5.21513 12.6626 5.50929 12.6631 5.80326 12.6636L6.15527 12.6642C6.33058 12.6644 6.50435 12.6647 6.67442 12.665L7.00894 12.6655C7.06365 12.6656 7.11779 12.6657 7.17127 12.6657L7.48363 12.6661C7.53417 12.6662 7.58388 12.6663 7.6327 12.6663L8.80966 12.6663C8.88665 12.666 8.93502 12.6656 8.94957 12.6651C9.43957 12.6451 9.89424 12.4371 10.2216 12.0804C10.5276 11.7478 10.6849 11.3211 10.6656 10.8804L10.665 10.8694L10.6649 7.6453C10.6648 7.59293 10.6648 7.54124 10.6648 7.49031L10.6643 6.91975C10.6642 6.87598 10.6642 6.83327 10.6641 6.79166L10.6635 6.4494C10.6633 6.3467 10.6631 6.25603 10.6628 6.1794L10.6623 6.04541C10.6619 5.96934 10.6614 5.92055 10.6609 5.90376C10.5856 4.97576 9.71624 4.26109 8.72024 4.33909ZM13.679 5.74356L11.6647 7.38709C11.6647 7.469 11.6648 7.55414 11.6649 7.64252L11.6653 9.31428L13.671 11.1562C13.8184 11.2762 13.9664 11.2269 14.0237 11.1989C14.081 11.1722 14.2137 11.0889 14.2137 10.8996L14.2217 6.00022C14.2224 5.81089 14.089 5.72756 14.0317 5.70022C13.975 5.67356 13.825 5.62356 13.679 5.74356Z"/>
</mask>
<path fill-rule="evenodd" clip-rule="evenodd" d="M5.39285 3.33428L5.70641 3.33469C5.76001 3.33476 5.81421 3.33484 5.8689 3.33492L6.20215 3.33546C6.93334 3.33671 7.71217 3.33842 8.30575 3.33966L8.56571 3.34019C8.60656 3.34027 8.64611 3.34035 8.68424 3.34042C10.1842 3.23509 11.5382 4.34842 11.6589 5.84242C11.66 5.85775 11.661 5.94471 11.6618 6.10289L13.0457 4.96956C13.4484 4.63956 13.9904 4.57489 14.4604 4.79689C14.9304 5.02022 15.2224 5.48156 15.2217 6.00156L15.2137 10.9009C15.213 11.4209 14.9204 11.8822 14.451 12.1036C14.267 12.1909 14.0724 12.2329 13.879 12.2329C13.5784 12.2329 13.2817 12.1296 13.037 11.9289L11.6649 10.7904C11.6649 10.8097 11.6649 10.829 11.6649 10.8484C11.6929 11.5524 11.4422 12.2304 10.9582 12.7571C10.4496 13.3111 9.74824 13.6331 8.98424 13.6644C8.97127 13.6654 8.89825 13.666 8.77843 13.6664L8.51505 13.6668C8.41231 13.6669 8.29559 13.6669 8.16774 13.6669L7.60378 13.6663C7.55296 13.6662 7.50134 13.6662 7.44901 13.6661L7.1274 13.6656C6.36116 13.6643 5.49803 13.6623 4.82886 13.6608L4.55479 13.6603C4.46796 13.6601 4.38594 13.6599 4.30957 13.6598C4.2389 13.6651 4.16823 13.6678 4.09757 13.6678C2.68823 13.6684 1.4589 12.5884 1.3429 11.1718L1.3428 11.1703L1.34217 11.1571C1.34213 11.1557 1.34208 11.1541 1.34203 11.1523L1.34157 11.1313C1.34152 11.1284 1.34147 11.1251 1.34141 11.1217L1.34091 11.0828C1.34085 11.0776 1.34079 11.0721 1.34073 11.0662L1.3402 11.0032C1.34014 10.995 1.34008 10.9864 1.34002 10.9774L1.33966 10.9178C1.3396 10.907 1.33954 10.8956 1.33948 10.8838L1.33893 10.7631C1.33888 10.7481 1.33882 10.7325 1.33876 10.7163L1.33824 10.5539C1.33818 10.534 1.33812 10.5134 1.33807 10.4921L1.33758 10.2817C1.33753 10.2561 1.33748 10.2298 1.33743 10.2028L1.33687 9.83984C1.33683 9.80629 1.33679 9.77188 1.33675 9.7366L1.33623 9.13882C1.3362 9.09421 1.33618 9.04861 1.33615 9.00201L1.33614 6.39006C1.33617 6.31084 1.3362 6.2303 1.33623 6.14842C1.30423 5.46109 1.55357 4.77842 2.04023 4.24709C2.54823 3.69242 3.2489 3.36909 4.01357 3.33642C4.02386 3.33568 4.07259 3.33512 4.15296 3.33472L4.2964 3.33422C4.32397 3.33416 4.35332 3.3341 4.38432 3.33405L5.24306 3.33412C5.2921 3.33417 5.34207 3.33422 5.39285 3.33428ZM8.72024 4.33909C7.87853 4.33787 6.84935 4.3364 5.97108 4.33544L5.50902 4.33497C5.43518 4.3349 5.3631 4.33484 5.29303 4.33478L4.13364 4.33482C4.09001 4.33502 4.06179 4.33531 4.0509 4.33576C3.5589 4.35642 3.1049 4.56509 2.77757 4.92242C2.47223 5.25642 2.3149 5.68309 2.33557 6.12576L2.33612 8.70107C2.33615 8.75792 2.33618 8.81438 2.33621 8.87037L2.33682 9.6664C2.33687 9.71593 2.33692 9.76464 2.33698 9.81244L2.33732 10.0878C2.33738 10.1317 2.33744 10.1746 2.33751 10.2163L2.33816 10.5596C2.33887 10.8687 2.33977 11.0692 2.3409 11.1078C2.4169 12.0311 3.28223 12.7371 4.2729 12.6611C4.37766 12.6612 4.48531 12.6614 4.59519 12.6616L4.93088 12.6621C5.21513 12.6626 5.50929 12.6631 5.80326 12.6636L6.15527 12.6642C6.33058 12.6644 6.50435 12.6647 6.67442 12.665L7.00894 12.6655C7.06365 12.6656 7.11779 12.6657 7.17127 12.6657L7.48363 12.6661C7.53417 12.6662 7.58388 12.6663 7.6327 12.6663L8.80966 12.6663C8.88665 12.666 8.93502 12.6656 8.94957 12.6651C9.43957 12.6451 9.89424 12.4371 10.2216 12.0804C10.5276 11.7478 10.6849 11.3211 10.6656 10.8804L10.665 10.8694L10.6649 7.6453C10.6648 7.59293 10.6648 7.54124 10.6648 7.49031L10.6643 6.91975C10.6642 6.87598 10.6642 6.83327 10.6641 6.79166L10.6635 6.4494C10.6633 6.3467 10.6631 6.25603 10.6628 6.1794L10.6623 6.04541C10.6619 5.96934 10.6614 5.92055 10.6609 5.90376C10.5856 4.97576 9.71624 4.26109 8.72024 4.33909ZM13.679 5.74356L11.6647 7.38709C11.6647 7.469 11.6648 7.55414 11.6649 7.64252L11.6653 9.31428L13.671 11.1562C13.8184 11.2762 13.9664 11.2269 14.0237 11.1989C14.081 11.1722 14.2137 11.0889 14.2137 10.8996L14.2217 6.00022C14.2224 5.81089 14.089 5.72756 14.0317 5.70022C13.975 5.67356 13.825 5.62356 13.679 5.74356Z" fill="#2179EC"/>
<path fill-rule="evenodd" clip-rule="evenodd" d="M5.39285 3.33428L5.70641 3.33469C5.76001 3.33476 5.81421 3.33484 5.8689 3.33492L6.20215 3.33546C6.93334 3.33671 7.71217 3.33842 8.30575 3.33966L8.56571 3.34019C8.60656 3.34027 8.64611 3.34035 8.68424 3.34042C10.1842 3.23509 11.5382 4.34842 11.6589 5.84242C11.66 5.85775 11.661 5.94471 11.6618 6.10289L13.0457 4.96956C13.4484 4.63956 13.9904 4.57489 14.4604 4.79689C14.9304 5.02022 15.2224 5.48156 15.2217 6.00156L15.2137 10.9009C15.213 11.4209 14.9204 11.8822 14.451 12.1036C14.267 12.1909 14.0724 12.2329 13.879 12.2329C13.5784 12.2329 13.2817 12.1296 13.037 11.9289L11.6649 10.7904C11.6649 10.8097 11.6649 10.829 11.6649 10.8484C11.6929 11.5524 11.4422 12.2304 10.9582 12.7571C10.4496 13.3111 9.74824 13.6331 8.98424 13.6644C8.97127 13.6654 8.89825 13.666 8.77843 13.6664L8.51505 13.6668C8.41231 13.6669 8.29559 13.6669 8.16774 13.6669L7.60378 13.6663C7.55296 13.6662 7.50134 13.6662 7.44901 13.6661L7.1274 13.6656C6.36116 13.6643 5.49803 13.6623 4.82886 13.6608L4.55479 13.6603C4.46796 13.6601 4.38594 13.6599 4.30957 13.6598C4.2389 13.6651 4.16823 13.6678 4.09757 13.6678C2.68823 13.6684 1.4589 12.5884 1.3429 11.1718L1.3428 11.1703L1.34217 11.1571C1.34213 11.1557 1.34208 11.1541 1.34203 11.1523L1.34157 11.1313C1.34152 11.1284 1.34147 11.1251 1.34141 11.1217L1.34091 11.0828C1.34085 11.0776 1.34079 11.0721 1.34073 11.0662L1.3402 11.0032C1.34014 10.995 1.34008 10.9864 1.34002 10.9774L1.33966 10.9178C1.3396 10.907 1.33954 10.8956 1.33948 10.8838L1.33893 10.7631C1.33888 10.7481 1.33882 10.7325 1.33876 10.7163L1.33824 10.5539C1.33818 10.534 1.33812 10.5134 1.33807 10.4921L1.33758 10.2817C1.33753 10.2561 1.33748 10.2298 1.33743 10.2028L1.33687 9.83984C1.33683 9.80629 1.33679 9.77188 1.33675 9.7366L1.33623 9.13882C1.3362 9.09421 1.33618 9.04861 1.33615 9.00201L1.33614 6.39006C1.33617 6.31084 1.3362 6.2303 1.33623 6.14842C1.30423 5.46109 1.55357 4.77842 2.04023 4.24709C2.54823 3.69242 3.2489 3.36909 4.01357 3.33642C4.02386 3.33568 4.07259 3.33512 4.15296 3.33472L4.2964 3.33422C4.32397 3.33416 4.35332 3.3341 4.38432 3.33405L5.24306 3.33412C5.2921 3.33417 5.34207 3.33422 5.39285 3.33428ZM8.72024 4.33909C7.87853 4.33787 6.84935 4.3364 5.97108 4.33544L5.50902 4.33497C5.43518 4.3349 5.3631 4.33484 5.29303 4.33478L4.13364 4.33482C4.09001 4.33502 4.06179 4.33531 4.0509 4.33576C3.5589 4.35642 3.1049 4.56509 2.77757 4.92242C2.47223 5.25642 2.3149 5.68309 2.33557 6.12576L2.33612 8.70107C2.33615 8.75792 2.33618 8.81438 2.33621 8.87037L2.33682 9.6664C2.33687 9.71593 2.33692 9.76464 2.33698 9.81244L2.33732 10.0878C2.33738 10.1317 2.33744 10.1746 2.33751 10.2163L2.33816 10.5596C2.33887 10.8687 2.33977 11.0692 2.3409 11.1078C2.4169 12.0311 3.28223 12.7371 4.2729 12.6611C4.37766 12.6612 4.48531 12.6614 4.59519 12.6616L4.93088 12.6621C5.21513 12.6626 5.50929 12.6631 5.80326 12.6636L6.15527 12.6642C6.33058 12.6644 6.50435 12.6647 6.67442 12.665L7.00894 12.6655C7.06365 12.6656 7.11779 12.6657 7.17127 12.6657L7.48363 12.6661C7.53417 12.6662 7.58388 12.6663 7.6327 12.6663L8.80966 12.6663C8.88665 12.666 8.93502 12.6656 8.94957 12.6651C9.43957 12.6451 9.89424 12.4371 10.2216 12.0804C10.5276 11.7478 10.6849 11.3211 10.6656 10.8804L10.665 10.8694L10.6649 7.6453C10.6648 7.59293 10.6648 7.54124 10.6648 7.49031L10.6643 6.91975C10.6642 6.87598 10.6642 6.83327 10.6641 6.79166L10.6635 6.4494C10.6633 6.3467 10.6631 6.25603 10.6628 6.1794L10.6623 6.04541C10.6619 5.96934 10.6614 5.92055 10.6609 5.90376C10.5856 4.97576 9.71624 4.26109 8.72024 4.33909ZM13.679 5.74356L11.6647 7.38709C11.6647 7.469 11.6648 7.55414 11.6649 7.64252L11.6653 9.31428L13.671 11.1562C13.8184 11.2762 13.9664 11.2269 14.0237 11.1989C14.081 11.1722 14.2137 11.0889 14.2137 10.8996L14.2217 6.00022C14.2224 5.81089 14.089 5.72756 14.0317 5.70022C13.975 5.67356 13.825 5.62356 13.679 5.74356Z" stroke="#2179EC" stroke-width="0.6" mask="url(#path-1-outside-1_31_544)"/>
</svg>
