<svg width="20" height="14" viewBox="0 0 20 14" fill="none" xmlns="http://www.w3.org/2000/svg">
<path fill-rule="evenodd" clip-rule="evenodd" d="M4.96638 0.813957C7.31916 0.603591 9.6868 0.621953 12.036 0.868785L12.6438 0.932638C13.8037 1.05451 14.7372 1.93433 14.9314 3.07943L18.2098 1.33767C18.432 1.21964 18.6985 1.22085 18.9196 1.34091C19.1407 1.46097 19.2868 1.68388 19.3088 1.9345L19.3337 2.21834C19.6126 5.40001 19.6126 8.59999 19.3337 11.7817L19.3088 12.0655C19.2868 12.3161 19.1407 12.539 18.9196 12.6591C18.6985 12.7791 18.432 12.7804 18.2098 12.6623L14.9314 10.9206C14.7372 12.0657 13.8037 12.9455 12.6438 13.0674L12.036 13.1312C9.6868 13.3781 7.31916 13.3964 4.96638 13.1861L3.3846 13.0446C2.1927 12.9381 1.22968 12.0275 1.05657 10.8434C0.683944 8.2947 0.683944 5.70532 1.05657 3.15658C1.22968 1.97251 2.1927 1.06196 3.3846 0.955387L4.96638 0.813957ZM15.1164 9.36662C15.1966 9.37922 15.2762 9.40517 15.3519 9.44541L17.9069 10.8029C18.0882 8.27086 18.0882 5.72914 17.9069 3.19714L15.3519 4.55459C15.2762 4.59483 15.1966 4.62078 15.1164 4.63338C15.2566 6.20801 15.2566 7.79199 15.1164 9.36662Z" fill="white"/>
</svg>
