<svg width="20" height="18" viewBox="0 0 20 18" fill="none" xmlns="http://www.w3.org/2000/svg">
<path d="M12.6096 1.84573C12.5115 1.0611 11.5846 0.695321 10.9771 1.20154L5.95804 5.38412C5.86818 5.459 5.75492 5.50001 5.63795 5.50001H1.75C1.05964 5.50001 0.5 6.05966 0.5 6.75001V11.25C0.5 11.9404 1.05964 12.5 1.75 12.5H5.63795C5.75492 12.5 5.86818 12.541 5.95804 12.6159L10.9771 16.7985C11.5846 17.3047 12.5115 16.9389 12.6096 16.1543L12.7054 15.3878C13.2357 11.1458 13.2357 6.85424 12.7054 2.61222L12.6096 1.84573Z" fill="white"/>
<path d="M17.9082 2.94578C18.3014 2.81572 18.7257 3.02908 18.8557 3.42234C19.4362 5.17731 19.75 7.05277 19.75 9.00002C19.75 10.9473 19.4362 12.8227 18.8557 14.5777C18.7257 14.971 18.3014 15.1843 17.9082 15.0543C17.5149 14.9242 17.3015 14.5 17.4316 14.1067C17.9624 12.5018 18.25 10.7852 18.25 9.00002C18.25 7.21481 17.9624 5.49828 17.4316 3.89336C17.3015 3.50009 17.5149 3.07585 17.9082 2.94578Z" fill="white"/>
<path d="M16.0323 4.94771C15.8894 4.55891 15.4584 4.35953 15.0696 4.50239C14.6808 4.64524 14.4815 5.07623 14.6243 5.46503C15.0288 6.56596 15.25 7.75632 15.25 9.00002C15.25 10.0316 15.0978 11.0264 14.8152 11.9637C14.7995 12.0159 14.7833 12.068 14.7668 12.1198C14.7222 12.2595 14.6747 12.398 14.6243 12.535C14.4815 12.9238 14.6808 13.3548 15.0696 13.4977C15.4584 13.6405 15.8894 13.4411 16.0323 13.0523C16.0901 12.8951 16.1446 12.7362 16.1958 12.5759C16.2148 12.5163 16.2333 12.4566 16.2514 12.3967C16.5758 11.3204 16.75 10.1799 16.75 9.00002C16.75 7.57722 16.4968 6.21188 16.0323 4.94771Z" fill="white"/>
</svg>
